<svg xmlns="http://www.w3.org/2000/svg" viewBox="0 0 300 300">
	<defs>
		<clipPath id="clippath">
			<path
				fill="#10B981"
				d="M270.96 98.42v103.17c0 11.3-6.03 21.74-15.81 27.38l-89.34 51.58a31.612 31.612 0 01-31.62 0l-89.35-51.58a31.631 31.631 0 01-15.81-27.38V98.42c0-11.3 6.03-21.74 15.81-27.38l89.35-51.58a31.612 31.612 0 0131.62 0l89.34 51.58a31.631 31.631 0 0115.81 27.38z"
			/>
		</clipPath>
	</defs>
	<path
		fill="#10B981"
		d="M270.96 98.42v103.17c0 11.3-6.03 21.74-15.81 27.38l-89.34 51.58a31.612 31.612 0 01-31.62 0l-89.35-51.58a31.631 31.631 0 01-15.81-27.38V98.42c0-11.3 6.03-21.74 15.81-27.38l89.35-51.58a31.612 31.612 0 0131.62 0l89.34 51.58a31.631 31.631 0 0115.81 27.38z"
	/>
	<g clip-path="url(#clippath)">
		<path
			fill="#FFFFFF"
			d="M270.96 93.67v121.78c0 2.77-1.48 5.33-3.87 6.71l-105.47 60.89c-5.16 2.98-11.62-.75-11.62-6.71V154.62c0-2.77 1.48-5.32 3.87-6.71l105.47-60.96c5.16-2.98 11.62.74 11.62 6.71z"
			opacity="0.08"
		/>
		<path
			fill="#0F172A"
			d="M150 154.61v121.76c0 5.95-6.44 9.67-11.59 6.69L32.9 222.14a7.723 7.723 0 01-3.86-6.69V93.63c0-5.95 6.44-9.67 11.6-6.69l105.51 60.98a7.723 7.723 0 013.86 6.69z"
			opacity="0.15"
		/>
	</g>
</svg>