<svg width="16" height="16" viewBox="0 0 16 16" fill="none" xmlns="http://www.w3.org/2000/svg">
<path fill-rule="evenodd" clip-rule="evenodd" d="M11.2654 2.3813H11.332C13.173 2.3813 14.6654 3.87369 14.6654 5.71464V11.7146C14.6654 13.5556 13.173 15.048 11.332 15.048H4.66536C3.78131 15.048 2.93346 14.6968 2.30834 14.0717C1.68322 13.4465 1.33203 12.5987 1.33203 11.7146V5.71464C1.33203 3.87369 2.82442 2.3813 4.66536 2.3813H4.73203V1.16797C4.73203 0.891826 4.95589 0.667969 5.23203 0.667969C5.50817 0.667969 5.73203 0.891826 5.73203 1.16797V2.3813H10.2654V1.16797C10.2654 0.891826 10.4892 0.667969 10.7654 0.667969C11.0415 0.667969 11.2654 0.891826 11.2654 1.16797V2.3813ZM4.9987 6.4413H10.9987C11.2748 6.4413 11.4987 6.21744 11.4987 5.9413C11.4987 5.66516 11.2748 5.4413 10.9987 5.4413H4.9987C4.72256 5.4413 4.4987 5.66516 4.4987 5.9413C4.4987 6.21744 4.72256 6.4413 4.9987 6.4413Z" fill="#64748B"/>
</svg>
