<svg width="24" height="24" viewBox="0 0 24 24" fill="none" xmlns="http://www.w3.org/2000/svg">
<path d="M0 12C0 5.37258 5.37258 0 12 0C18.6274 0 24 5.37258 24 12C24 18.6274 18.6274 24 12 24C5.37258 24 0 18.6274 0 12Z" fill="#1E293B"/>
<path fill-rule="evenodd" clip-rule="evenodd" d="M14.45 7.785H14.5C15.8807 7.785 17 8.90429 17 10.285V14.785C17 16.1657 15.8807 17.285 14.5 17.285H9.5C8.83696 17.285 8.20107 17.0216 7.73223 16.5528C7.26339 16.0839 7 15.448 7 14.785V10.285C7 8.90429 8.11929 7.785 9.5 7.785H9.55V6.875C9.55 6.66789 9.71789 6.5 9.925 6.5C10.1321 6.5 10.3 6.66789 10.3 6.875V7.785H13.7V6.875C13.7 6.66789 13.8679 6.5 14.075 6.5C14.2821 6.5 14.45 6.66789 14.45 6.875V7.785ZM9.75 10.83H14.25C14.4571 10.83 14.625 10.6621 14.625 10.455C14.625 10.2479 14.4571 10.08 14.25 10.08H9.75C9.54289 10.08 9.375 10.2479 9.375 10.455C9.375 10.6621 9.54289 10.83 9.75 10.83Z" fill="#64748B"/>
</svg>
