<svg width="210" height="211" viewBox="0 0 210 211" fill="none" xmlns="http://www.w3.org/2000/svg">
<circle cx="105.5" cy="95.5" r="95" fill="white"/>
<circle cx="105.5" cy="95.5" r="95" stroke="#F8FAFC" stroke-opacity="0.1"/>
<circle cx="105.5" cy="95.5" r="95" stroke="#858585"/>
<path d="M40.7692 117.641C47.3559 152.956 81.3245 176.246 116.64 169.659C151.956 163.073 175.245 129.104 168.659 93.7883C162.072 58.4726 128.103 35.1832 92.7877 41.7698C57.472 48.3565 34.1826 82.3251 40.7692 117.641Z" fill="#F5C2D0"/>
<ellipse cx="16.2618" cy="16.2618" rx="16.2618" ry="16.2618" transform="matrix(-0.983048 0.183347 0.183347 0.983048 53.9043 94.305)" fill="#F5C2D0"/>
<ellipse cx="16.2618" cy="16.2618" rx="16.2618" ry="16.2618" transform="matrix(-0.983048 0.183347 0.183347 0.983048 182.064 94.305)" fill="#F5C2D0"/>
<path fill-rule="evenodd" clip-rule="evenodd" d="M39.5304 89.3506C49.2436 96.0392 61.5143 98.8207 73.8105 96.0596C86.282 93.2591 96.292 85.3154 102.182 74.9007C111.589 91.4806 130.782 100.749 150.038 96.425C156.957 94.8712 163.119 91.7341 168.24 87.4702C168.048 86.3584 167.827 85.2454 167.577 84.132C159.563 48.4434 124.651 25.8926 89.5995 33.7636C62.2839 39.8973 42.9441 62.6958 39.5304 89.3506Z" fill="#1E293B"/>
<path fill-rule="evenodd" clip-rule="evenodd" d="M151.456 52.9856L56.645 52.0884C58.8924 33.7522 79.461 19.5347 104.361 19.7703C129.26 20.0059 149.556 34.6102 151.456 52.9856Z" fill="#FACC15"/>
<rect x="40.832" y="51.9522" width="126.423" height="15.8029" rx="0.730207" transform="rotate(0.542194 40.832 51.9522)" fill="#FACC15"/>
<path d="M88.5681 18.4658C88.5833 16.8528 89.9033 15.5575 91.5164 15.5728L117.279 15.8166C118.892 15.8318 120.188 17.1519 120.172 18.7649L119.851 52.7159L88.2468 52.4168L88.5681 18.4658Z" fill="#EAB308"/>
</svg>
