<svg width="25" height="24" viewBox="0 0 25 24" fill="none" xmlns="http://www.w3.org/2000/svg">
<circle cx="12.5" cy="12" r="12" fill="#334155"/>
<circle cx="12.5" cy="12" r="11.5" stroke="#F8FAFC" stroke-opacity="0.1"/>
<path d="M5.99753 13.9785C6.63013 17.3703 9.89251 19.607 13.2843 18.9744C16.676 18.3418 18.9128 15.0795 18.2802 11.6877C17.6476 8.29595 14.3852 6.0592 10.9934 6.6918C7.60169 7.32439 5.36494 10.5868 5.99753 13.9785Z" fill="#64748B"/>
<circle cx="1.56181" cy="1.56181" r="1.56181" transform="matrix(-0.983048 0.183347 0.183347 0.983048 7.25781 11.7339)" fill="#64748B"/>
<ellipse cx="1.56181" cy="1.5618" rx="1.56181" ry="1.5618" transform="matrix(-0.983048 0.183347 0.183347 0.983048 19.5664 11.7339)" fill="#64748B"/>
<path fill-rule="evenodd" clip-rule="evenodd" d="M5.87893 11.2589C6.81188 11.9015 7.99057 12.1688 9.17173 11.9036C10.37 11.6345 11.3316 10.8711 11.8972 9.87031C12.8004 11.4634 14.6442 12.3541 16.494 11.9387C17.158 11.7896 17.7494 11.4887 18.2409 11.0797C18.2224 10.972 18.201 10.8643 18.1768 10.7565C17.4071 7.32889 14.0542 5.1631 10.6878 5.91903C8.06394 6.50821 6.20636 8.6984 5.87893 11.2589Z" fill="#1E293B"/>
<path fill-rule="evenodd" clip-rule="evenodd" d="M16.6307 7.77168L7.52491 7.68551C7.74076 5.92449 9.71619 4.55903 12.1076 4.58166C14.4989 4.60429 16.4482 6.00689 16.6307 7.77168Z" fill="#475569"/>
<rect x="6.00781" y="7.66895" width="12.1418" height="1.51772" rx="0.505908" transform="rotate(0.542194 6.00781 7.66895)" fill="#475569"/>
<path d="M10.5794 5.68855C10.5873 4.85037 11.2732 4.17733 12.1114 4.18526C12.9496 4.19319 13.6226 4.8791 13.6147 5.71728L13.5956 7.74082L10.5602 7.7121L10.5794 5.68855Z" fill="#334155"/>
</svg>
