<svg width="16" height="16" viewBox="0 0 16 16" fill="none" xmlns="http://www.w3.org/2000/svg">
<g clip-path="url(#clip0_1996_78592)">
<path fill-rule="evenodd" clip-rule="evenodd" d="M9.66462 2.4487C8.77555 1.68377 7.46081 1.68377 6.57174 2.4487C6.18771 2.77912 5.70794 2.97784 5.20275 3.01576C4.03319 3.10353 3.10353 4.03319 3.01576 5.20275C2.97784 5.70794 2.77912 6.18771 2.4487 6.57174C1.68377 7.46081 1.68377 8.77555 2.4487 9.66462C2.77912 10.0486 2.97784 10.5284 3.01576 11.0336C3.10353 12.2032 4.03319 13.1328 5.20275 13.2206C5.70794 13.2585 6.18771 13.4572 6.57174 13.7877C7.46081 14.5526 8.77555 14.5526 9.66462 13.7877C10.0486 13.4572 10.5284 13.2585 11.0336 13.2206C12.2032 13.1328 13.1328 12.2032 13.2206 11.0336C13.2585 10.5284 13.4572 10.0486 13.7877 9.66462C14.5526 8.77555 14.5526 7.46081 13.7877 6.57174C13.4572 6.18771 13.2585 5.70794 13.2206 5.20275C13.1328 4.03319 12.2032 3.10353 11.0336 3.01576C10.5284 2.97784 10.0486 2.77912 9.66462 2.4487ZM11.231 6.80719C11.4734 6.53779 11.4516 6.12285 11.1822 5.8804C10.9128 5.63794 10.4979 5.65978 10.2554 5.92918L7.52801 8.95962L5.91332 7.61404C5.63488 7.38201 5.22108 7.41963 4.98905 7.69806C4.75702 7.97649 4.79464 8.3903 5.07307 8.62233L7.04366 10.2645C7.38688 10.5505 7.8948 10.5141 8.19368 10.182L11.231 6.80719Z" fill="#10B981"/>
</g>
<defs>
<clipPath id="clip0_1996_78592">
<rect width="14" height="14" fill="white" transform="translate(1 1)"/>
</clipPath>
</defs>
</svg>
