<svg width="40" height="40" viewBox="0 0 40 40" fill="none" xmlns="http://www.w3.org/2000/svg">
<circle cx="20" cy="20" r="20" fill="#4E5358"/>
<path d="M27.3462 10.0659H12.469C11.6961 10.0659 10.9548 10.373 10.4083 10.9195C9.86173 11.4661 9.55469 12.2073 9.55469 12.9803V27.8574C9.55469 28.6304 9.86173 29.3717 10.4083 29.9182C10.9548 30.4647 11.6961 30.7718 12.469 30.7718H19.2399V23.2141H16.6801V20.2662H19.2399V18.0946C19.2399 16.8639 19.5802 15.9076 20.2609 15.2282C20.9416 14.5475 21.8643 14.2058 23.0303 14.2058C24.1976 14.2058 24.9534 14.2511 25.2989 14.3365V16.961H23.7434C23.1817 16.961 22.7987 17.08 22.5929 17.3182C22.3884 17.555 22.2862 17.9122 22.2862 18.3871V20.2662H25.2018L24.8136 23.2141H22.2862V30.7718H27.3462C28.1192 30.7718 28.8604 30.4647 29.4069 29.9182C29.9536 29.3717 30.2605 28.6304 30.2605 27.8574V12.9803C30.2605 12.2073 29.9536 11.4661 29.4069 10.9195C28.8604 10.373 28.1192 10.0659 27.3462 10.0659Z" fill="white"/>
</svg>
