<svg width="40" height="40" viewBox="0 0 40 40" fill="none" xmlns="http://www.w3.org/2000/svg">
<circle cx="20" cy="20" r="20" fill="#4E5358"/>
<g clip-path="url(#clip0_29_177)">
<path d="M24.5827 30.0834H15.416C13.9573 30.0834 12.5584 29.504 11.5269 28.4725C10.4955 27.4411 9.91602 26.0421 9.91602 24.5834V15.4167C9.91602 13.9581 10.4955 12.5591 11.5269 11.5277C12.5584 10.4962 13.9573 9.91675 15.416 9.91675H24.5827C26.0414 9.91675 27.4403 10.4962 28.4718 11.5277C29.5032 12.5591 30.0827 13.9581 30.0827 15.4167V24.5834C30.0827 26.0421 29.5032 27.4411 28.4718 28.4725C27.4403 29.504 26.0414 30.0834 24.5827 30.0834ZM15.416 11.7501C14.4436 11.7501 13.5109 12.1364 12.8233 12.824C12.1357 13.5117 11.7493 14.4443 11.7493 15.4167V24.5834C11.7493 25.5559 12.1357 26.4885 12.8233 27.1761C13.5109 27.8638 14.4436 28.2501 15.416 28.2501H24.5827C25.5551 28.2501 26.4878 27.8638 27.1754 27.1761C27.863 26.4885 28.2493 25.5559 28.2493 24.5834V15.4167C28.2493 14.4443 27.863 13.5117 27.1754 12.824C26.4878 12.1364 25.5551 11.7501 24.5827 11.7501H15.416Z" fill="white"/>
<path d="M20 25.5C18.9122 25.5 17.8488 25.1774 16.9444 24.5731C16.0399 23.9687 15.3349 23.1098 14.9187 22.1048C14.5024 21.0998 14.3935 19.9939 14.6057 18.927C14.8179 17.8601 15.3417 16.8801 16.1109 16.1109C16.8801 15.3417 17.8601 14.8179 18.927 14.6057C19.9939 14.3935 21.0998 14.5024 22.1048 14.9187C23.1098 15.3349 23.9687 16.0399 24.5731 16.9444C25.1774 17.8488 25.5 18.9122 25.5 20C25.5 21.4587 24.9205 22.8576 23.8891 23.8891C22.8576 24.9205 21.4587 25.5 20 25.5ZM20 16.3333C19.2748 16.3333 18.5659 16.5484 17.9629 16.9513C17.3599 17.3542 16.89 17.9268 16.6124 18.5968C16.3349 19.2668 16.2623 20.0041 16.4038 20.7153C16.5453 21.4266 16.8945 22.0799 17.4073 22.5927C17.9201 23.1055 18.5734 23.4547 19.2847 23.5962C19.9959 23.7377 20.7332 23.6651 21.4032 23.3876C22.0732 23.11 22.6458 22.6401 23.0487 22.0371C23.4516 21.4341 23.6667 20.7252 23.6667 20C23.6667 19.0275 23.2804 18.0949 22.5927 17.4073C21.9051 16.7196 20.9725 16.3333 20 16.3333Z" fill="white"/>
<path d="M25.4987 14.5001C26.005 14.5001 26.4154 14.0897 26.4154 13.5834C26.4154 13.0772 26.005 12.6667 25.4987 12.6667C24.9924 12.6667 24.582 13.0772 24.582 13.5834C24.582 14.0897 24.9924 14.5001 25.4987 14.5001Z" fill="white"/>
</g>
<defs>
<clipPath id="clip0_29_177">
<rect width="22" height="22" fill="white" transform="translate(9 9)"/>
</clipPath>
</defs>
</svg>
