<svg width="40" height="40" viewBox="0 0 40 40" fill="none" xmlns="http://www.w3.org/2000/svg">
<circle cx="20" cy="20" r="20" fill="#4E5358"/>
<path d="M20 23.75C19.3543 23.75 18.7086 23.5382 18.1578 23.109L10 16.7656V25.625C10 26.6602 10.8395 27.5 11.875 27.5H28.125C29.1605 27.5 30 26.6605 30 25.625V16.7656L21.8438 23.1133C21.293 23.5391 20.6445 23.75 20 23.75ZM10.6363 15.6758L18.9254 22.125C19.5578 22.6172 20.4437 22.6172 21.0762 22.125L29.3652 15.6758C29.7305 15.3633 30 14.8828 30 14.375C30 13.3395 29.1602 12.5 28.125 12.5H11.875C10.8395 12.5 10 13.3395 10 14.375C10 14.8828 10.2348 15.3633 10.6363 15.6758Z" fill="white"/>
</svg>
