<svg width="56" height="56" viewBox="0 0 56 56" fill="none" xmlns="http://www.w3.org/2000/svg">
<path d="M14.1169 39.9981L10.5876 43.5274C9.8033 41.9588 8.94058 38.1158 11.764 35.2923C14.5875 32.4689 17.6462 33.3316 18.8226 34.1159L27.0577 25.8809L31.7635 30.5866L23.5284 38.8217C23.9205 39.6059 24.2343 41.8804 22.352 44.7038C20.4697 47.5273 16.0776 47.4489 14.1169 47.0567L17.6462 43.5274V39.9981H14.1169Z" fill="#CAD5E1"/>
<path d="M44.4085 16.6689L47.9378 13.1396C48.7221 14.7082 49.5848 18.5512 46.7614 21.3746C43.9379 24.1981 40.8792 23.3354 39.7027 22.5511L31.4677 30.7861L26.7619 26.0804L34.997 17.8453C34.6049 17.061 34.2911 14.7866 36.1734 11.9632C38.0557 9.1397 42.4478 9.21813 44.4085 9.61028L40.8792 13.1396V16.6689H44.4085Z" fill="#CAD5E1"/>
<rect x="17.6934" y="20.8125" width="7.50903" height="37.8678" rx="2.35287" transform="rotate(-45 17.6934 20.8125)" fill="#FF9950"/>
<rect x="6.77344" y="21.8652" width="4.70575" height="11.0716" rx="2.35287" transform="rotate(-45 6.77344 21.8652)" fill="#575D68"/>
<rect x="9.41211" y="22.1514" width="6.8436" height="6.90768" transform="rotate(-45 9.41211 22.1514)" fill="#575D68"/>
<rect x="11.7637" y="17.4438" width="10.888" height="11.0716" rx="2.35287" transform="rotate(-45 11.7637 17.4438)" fill="#575D68"/>
<path d="M18.8242 10.3534L15.2949 13.8826L17.6478 20.0001L23.53 14.1179C25.7366 11.9113 23.8043 13.8436 28.4076 14.0924C28.806 14.1139 29.0194 13.6514 28.7542 13.3533C23.2941 7.21874 20.3333 9.22159 18.8242 10.3534Z" fill="#575D68"/>
</svg>
